<svg width="512" height="524" viewBox="0 0 512 524" fill="none" xmlns="http://www.w3.org/2000/svg">
<rect width="512" height="524" fill="transparent"/>
<path d="M77.352 137.374C77.352 112.555 97.4722 92.4346 122.292 92.4346H396.424C421.244 92.4346 441.364 112.555 441.364 137.374V383.419C441.364 408.239 421.244 428.359 396.424 428.359H122.292C97.4722 428.359 77.352 408.239 77.352 383.419V137.374Z" fill="#1992C2"/>
<path d="M158.21 223.779C158.21 220.539 159.609 217.457 162.047 215.324L247.725 140.362C251.949 136.666 258.253 136.655 262.49 140.335L348.826 215.322C351.283 217.455 352.694 220.55 352.694 223.804V357.049C352.694 363.254 347.664 368.284 341.459 368.284H169.445C163.24 368.284 158.21 363.254 158.21 357.049V223.779Z" fill="#E69731"/>
<path d="M210.971 223.266C212.209 223.259 212.209 223.259 213.472 223.252C214.38 223.255 215.289 223.259 216.225 223.262C217.179 223.259 218.134 223.256 219.117 223.253C222.284 223.246 225.452 223.251 228.619 223.256C230.812 223.255 233.006 223.254 235.199 223.251C239.8 223.249 244.401 223.252 249.002 223.261C254.326 223.27 259.65 223.267 264.973 223.258C270.089 223.249 275.205 223.25 280.322 223.255C282.501 223.256 284.681 223.254 286.86 223.25C289.902 223.246 292.943 223.253 295.985 223.262C296.893 223.259 297.802 223.255 298.738 223.252C299.563 223.257 300.389 223.261 301.239 223.266C301.959 223.267 302.678 223.268 303.42 223.268C305.159 223.485 305.159 223.485 306.88 225.206C308.087 232.02 308.586 240.855 305.361 247.064C303.405 249.173 301.382 250.955 299.135 252.745C298.158 253.797 297.206 254.873 296.284 255.973C295.805 256.522 295.326 257.071 294.832 257.637C293.464 259.221 292.102 260.811 290.744 262.404C286.664 267.187 282.576 271.945 278.319 276.573C274.854 280.348 271.612 284.258 268.395 288.245C266.374 290.682 264.273 293.016 262.129 295.345C258.592 299.189 255.249 303.148 251.977 307.219C250.468 309.07 248.937 310.891 247.38 312.703C246.918 313.241 246.456 313.779 245.98 314.333C245.629 314.741 245.278 315.149 244.917 315.569C246.076 315.563 246.076 315.563 247.258 315.558C254.527 315.523 261.796 315.497 269.065 315.48C272.802 315.471 276.54 315.459 280.277 315.439C283.882 315.421 287.486 315.41 291.091 315.406C292.468 315.403 293.846 315.396 295.223 315.387C297.148 315.375 299.072 315.373 300.997 315.374C302.094 315.37 303.191 315.366 304.321 315.362C306.88 315.569 306.88 315.569 308.601 317.29C308.824 319.262 308.824 319.262 308.83 321.698C308.833 323.011 308.833 323.011 308.837 324.352C308.83 325.27 308.823 326.188 308.817 327.134C308.827 328.506 308.827 328.506 308.837 329.905C308.835 330.782 308.832 331.659 308.83 332.563C308.828 333.367 308.826 334.172 308.824 335.001C308.601 337.084 308.601 337.084 306.88 339.666C305.087 339.991 305.087 339.991 302.83 339.994C301.975 340.001 301.121 340.008 300.241 340.016C298.83 340.008 298.83 340.008 297.39 340C295.908 340.007 295.908 340.007 294.396 340.014C291.117 340.025 287.838 340.018 284.558 340.009C282.288 340.011 280.018 340.013 277.748 340.016C272.984 340.021 268.221 340.015 263.458 340.003C257.946 339.989 252.435 339.993 246.924 340.007C241.627 340.02 236.331 340.019 231.035 340.011C228.779 340.01 226.522 340.012 224.266 340.018C221.117 340.024 217.968 340.014 214.82 340C213.879 340.005 212.938 340.011 211.969 340.016C210.688 340.005 210.688 340.005 209.38 339.994C208.263 339.992 208.263 339.992 207.122 339.991C206.531 339.884 205.939 339.776 205.329 339.666C201.991 334.659 202.536 327.85 203.125 322.008C204.333 316.668 208.626 313.362 212.597 309.908C214.589 308.087 216.203 306.021 217.862 303.897C221.384 299.513 225.134 295.391 228.952 291.267C232.588 287.331 236.082 283.282 239.562 279.209C240.45 278.169 241.339 277.129 242.228 276.089C242.899 275.303 242.899 275.303 243.583 274.502C246.19 271.458 248.834 268.456 251.533 265.493C256.485 260.035 261.164 254.349 265.571 248.442C264.842 248.435 264.113 248.429 263.361 248.421C256.497 248.354 249.634 248.279 242.77 248.195C239.241 248.152 235.712 248.112 232.183 248.079C228.779 248.048 225.376 248.008 221.972 247.962C220.671 247.946 219.371 247.933 218.07 247.923C216.253 247.909 214.436 247.884 212.618 247.856C211.582 247.845 210.547 247.833 209.479 247.821C207.051 247.582 207.051 247.582 205.329 245.861C205.107 243.797 205.107 243.797 205.101 241.235C205.099 240.316 205.096 239.398 205.094 238.451C205.104 237.007 205.104 237.007 205.114 235.533C205.108 234.57 205.101 233.608 205.094 232.615C205.096 231.697 205.099 230.778 205.101 229.832C205.103 228.987 205.105 228.141 205.107 227.27C205.527 223.375 207.551 223.27 210.971 223.266Z" fill="#FEFEFD"/>
<path d="M249.282 126.748C253.397 124.306 258.717 124.715 262.426 127.976L388.6 238.921C393.246 243.017 393.714 250.108 389.631 254.764C385.537 259.42 378.426 259.881 373.766 255.796L255.009 151.346L136.253 255.796C131.596 259.886 124.507 259.414 120.41 254.764C116.313 250.105 116.761 243.019 121.419 238.921L247.592 127.976L249.282 126.748Z" fill="white"/>
<path d="M6.45074 164.721H59.8167V187.279H6.45074V164.721Z" fill="#1B92C3"/>
<path d="M6.45074 239.822H59.8167V262.379H6.45074V239.822Z" fill="#1B92C3"/>
<path d="M6.45074 314.922H59.8167V337.48H6.45074V314.922Z" fill="#1B92C3"/>
<path d="M452.183 164.721H505.549V187.279H452.183V164.721Z" fill="#1B92C3"/>
<path d="M452.183 239.822H505.549V262.379H452.183V239.822Z" fill="#1B92C3"/>
<path d="M452.183 314.922H505.549V337.48H452.183V314.922Z" fill="#1B92C3"/>
<path d="M345.37 437.761V492H322.443V437.761H345.37Z" fill="#1B92C3"/>
<path d="M266.268 437.761V492H243.342V437.761H266.268Z" fill="#1B92C3"/>
<path d="M187.167 437.761V492H164.24V437.761H187.167Z" fill="#1B92C3"/>
<path d="M345.37 20V74.2395H322.443V20H345.37Z" fill="#1B92C3"/>
<path d="M266.268 20V74.2395H243.342V20H266.268Z" fill="#1B92C3"/>
<path d="M187.167 20V74.2395H164.24V20H187.167Z" fill="#1B92C3"/>
</svg>
